<svg xmlns="http://www.w3.org/2000/svg" viewBox="0 0 400 400"><defs><linearGradient id="a" x1="241.41" x2="315.47" y1="287.49" y2="367.88" gradientUnits="userSpaceOnUse"><stop offset="0" style="stop-color:#fff"/><stop offset="1" style="stop-color:#fff;stop-opacity:0"/></linearGradient><linearGradient id="c" x1="275.61" x2="342" y1="300.86" y2="391.45" gradientUnits="userSpaceOnUse"><stop offset="0" style="stop-color:#00112b"/><stop offset="1" style="stop-color:#0055d4"/></linearGradient><linearGradient id="e" x1="255.32" x2="300.27" y1="286.67" y2="338.82" gradientTransform="translate(-606.45 -52.271)scale(2.7754)" gradientUnits="userSpaceOnUse"><stop offset="0" style="stop-color:#fff"/><stop offset="1" style="stop-color:#fff;stop-opacity:0"/></linearGradient><filter id="b" color-interpolation-filters="sRGB"><feGaussianBlur stdDeviation=".53"/></filter><filter id="f" color-interpolation-filters="sRGB"><feGaussianBlur stdDeviation="1.397"/></filter><radialGradient id="d" cx="312.78" cy="386.57" r="53.036" gradientTransform="rotate(225 297.475 374.132)scale(.83901 1.01123)" gradientUnits="userSpaceOnUse"><stop offset="0" style="stop-color:#fff;stop-opacity:.40816"/><stop offset="1" style="stop-color:#fff;stop-opacity:0"/></radialGradient></defs><path d="M356.79 346.11a53.036 53.036 0 1 1-106.07 0 53.036 53.036 0 1 1 106.07 0" style="fill:#999" transform="translate(-653.01 -782.15)scale(2.8283)"/><path d="M356.79 346.11a53.036 53.036 0 1 1-106.07 0 53.036 53.036 0 1 1 106.07 0" style="fill:url(#a)" transform="translate(-640.71 -768.13)scale(2.7878)"/><path d="M356.79 346.11a53.036 53.036 0 1 1-106.07 0 53.036 53.036 0 1 1 106.07 0" style="filter:url(#b);fill:#ececec" transform="translate(-564.77 -681.605)scale(2.5378)"/><path d="M356.79 346.11a53.036 53.036 0 1 1-106.07 0 53.036 53.036 0 1 1 106.07 0" style="filter:url(#b);fill:#999" transform="translate(-533.74 -646.247)scale(2.4356)"/><path d="M356.79 346.11a53.036 53.036 0 1 1-106.07 0 53.036 53.036 0 1 1 106.07 0" style="fill:url(#c)" transform="translate(-505.05 -613.554)scale(2.3412)"/><path d="M356.79 346.11a53.036 53.036 0 1 1-106.07 0 53.036 53.036 0 1 1 106.07 0" style="fill:url(#d)" transform="translate(-459.36 -559.806)scale(2.2028)"/><path d="M203.16 732.39c-38.727.874-76.074 21.376-96.845 57.353-22.341 38.696-19.505 85.022 3.354 120.07 2.478-77.078 61.39-135.13 134.58-130.89 23.993 1.392 46.64 9.297 66.408 22.052-9.464-21.643-25.615-40.536-47.626-53.244-18.845-10.88-39.582-15.802-59.868-15.344z" style="opacity:.31771;fill:url(#e)" transform="translate(0 -652.36)"/><g style="filter:url(#f);fill:#1a1a1a" transform="translate(-1408.6 -745.463)scale(2.9051)"><path d="M546.92 335.78q.194-3.266.35-4.666t.428-2.43a9 9 0 0 1 .68-1.827q.408-.798 1.166-1.789a30 30 0 0 1 1.925-2.235q1.167-1.245 3.227-3.344l1.283-1.322q.66-.623 1.186-1.283t.797-1.147q.273-.486.389-.895a3 3 0 0 0 .117-.836q0-1.983-2.139-2.993-2.139-1.011-6.065-1.011-5.482 0-12.675 2.333l1.205-6.066q.194-1.05.467-2.585.271-1.536.622-3.986 8.554-1.244 15.669-1.244 4.704 0 8.534.72t6.688 2.468 4.374 4.16c1.517 2.41 1.516 3.332 1.516 5.172q0 1.166-.233 2.372a13 13 0 0 1-.661 2.294q-.428 1.087-1.264 2.43a25 25 0 0 1-1.963 2.702q-1.128 1.36-1.847 2.08t-2.722 2.625c-2.002 1.905-2.352 2.268-3.052 2.993q-1.05 1.089-1.71 2.061a8.4 8.4 0 0 0-1.031 2.08q-.37 1.108-.68 3.208a241 241 0 0 0-7.077-.117q-3.072 0-7.504.078m-1.788 16.758.388-4.666.506-6.298q.04-.428.116-2.1 4.938.078 8.088.078 3.383 0 7.931-.078-.388 4.433-.505 7.543a208 208 0 0 1-.272 5.521q-5.25-.078-7.854-.078-2.76 0-8.399.078"/></g><path d="M281.32 881.31q.545-9.144.98-13.064.436-3.919 1.197-6.804t1.905-5.117 3.266-5.008q2.124-2.775 5.39-6.26 3.266-3.483 9.035-9.362l3.593-3.702a34 34 0 0 0 3.32-3.593q1.47-1.85 2.232-3.211t1.089-2.504a8.5 8.5 0 0 0 .327-2.34q0-5.553-5.988-8.384-5.988-2.83-16.983-2.83-15.35 0-35.491 6.532l3.375-16.983q.544-2.94 1.306-7.24t1.742-11.159q23.951-3.483 43.873-3.483 13.173 0 23.896 2.014t18.725 6.913q8.001 4.899 12.248 11.649 4.245 6.75 4.246 14.479a35 35 0 0 1-.653 6.64 36.5 36.5 0 0 1-1.851 6.424q-1.198 3.048-3.538 6.804t-5.498 7.566-5.171 5.825-7.621 7.348-8.546 8.383-4.79 5.77a23.6 23.6 0 0 0-2.885 5.824q-1.035 3.103-1.906 8.982-10.995-.327-19.814-.327-8.6 0-21.01.218zm-5.008 46.922 1.089-13.064 1.415-17.636q.11-1.197.327-5.879 13.825.218 22.644.218 9.471 0 22.209-.218-1.089 12.411-1.416 21.12a582 582 0 0 1-.762 15.46q-14.697-.219-21.99-.219-7.731 0-23.516.218z" style="fill:#fff" transform="translate(-100 -652.36)"/></svg>